<svg width="80" height="47" viewBox="0 0 80 47" fill="none" xmlns="http://www.w3.org/2000/svg">
<path d="M20.49 11.25V33H17.34V23.58H6.21V33H3.09V11.25H6.21V20.58H17.34V11.25H20.49ZM25.8947 26.61C25.8947 25.35 26.1947 24.22 26.7947 23.22C27.3947 22.2 28.2247 21.4 29.2847 20.82C30.3447 20.24 31.5547 19.95 32.9147 19.95C34.2947 19.95 35.4947 20.24 36.5147 20.82C37.5547 21.4 38.3547 22.2 38.9147 23.22C39.4947 24.22 39.7847 25.35 39.7847 26.61C39.7847 27.87 39.4947 29.01 38.9147 30.03C38.3347 31.03 37.5247 31.83 36.4847 32.43C35.4647 33.01 34.2547 33.3 32.8547 33.3C31.5347 33.3 30.3447 33.03 29.2847 32.49C28.2447 31.95 27.4147 31.18 26.7947 30.18C26.1947 29.16 25.8947 27.97 25.8947 26.61ZM28.9547 26.64C28.9547 27.42 29.1247 28.13 29.4647 28.77C29.8047 29.39 30.2647 29.89 30.8447 30.27C31.4447 30.63 32.1047 30.81 32.8247 30.81C33.9647 30.81 34.8947 30.41 35.6147 29.61C36.3547 28.81 36.7247 27.82 36.7247 26.64C36.7247 25.46 36.3547 24.47 35.6147 23.67C34.8947 22.85 33.9647 22.44 32.8247 22.44C32.0847 22.44 31.4247 22.63 30.8447 23.01C30.2647 23.39 29.8047 23.9 29.4647 24.54C29.1247 25.18 28.9547 25.88 28.9547 26.64ZM48.1195 33.27C47.1995 33.27 46.3195 33.11 45.4795 32.79C44.6395 32.45 43.9295 31.97 43.3495 31.35L44.6395 29.61C45.1595 30.11 45.6995 30.49 46.2595 30.75C46.8395 31.01 47.3795 31.14 47.8795 31.14C48.4595 31.14 48.9695 31.03 49.4095 30.81C49.8495 30.57 50.0695 30.18 50.0695 29.64C50.0695 29.2 49.9195 28.86 49.6195 28.62C49.3395 28.38 48.9795 28.18 48.5395 28.02C48.0995 27.86 47.6295 27.71 47.1295 27.57C46.0895 27.23 45.2895 26.75 44.7295 26.13C44.1895 25.49 43.9195 24.74 43.9195 23.88C43.9195 23.22 44.0795 22.6 44.3995 22.02C44.7395 21.42 45.2495 20.94 45.9295 20.58C46.6095 20.2 47.4495 20.01 48.4495 20.01C49.3295 20.01 50.1195 20.12 50.8195 20.34C51.5195 20.54 52.1695 20.89 52.7695 21.39L51.5995 23.22C51.2395 22.86 50.8095 22.59 50.3095 22.41C49.8295 22.21 49.3895 22.1 48.9895 22.08C48.4495 22.08 47.9795 22.21 47.5795 22.47C47.1795 22.71 46.9795 23.04 46.9795 23.46C46.9795 23.88 47.1195 24.22 47.3995 24.48C47.6795 24.72 48.0395 24.92 48.4795 25.08C48.9395 25.22 49.3995 25.37 49.8595 25.53C50.7795 25.83 51.5395 26.24 52.1395 26.76C52.7595 27.28 53.0695 28.04 53.0695 29.04C53.0695 29.8 52.8895 30.5 52.5295 31.14C52.1695 31.78 51.6195 32.3 50.8795 32.7C50.1595 33.08 49.2395 33.27 48.1195 33.27ZM59.1614 14.97H62.2214V20.49H65.5814V22.86H62.2214V33H59.1614V22.86H56.9414V20.49H59.1614V14.97ZM72.6684 20.46L72.9684 24.06L72.8484 23.58C73.1884 22.82 73.6584 22.17 74.2584 21.63C74.8784 21.09 75.5184 20.68 76.1784 20.4C76.8584 20.1 77.4284 19.95 77.8884 19.95L77.7384 22.95C76.7984 22.89 75.9684 23.07 75.2484 23.49C74.5484 23.91 73.9984 24.47 73.5984 25.17C73.1984 25.87 72.9984 26.62 72.9984 27.42V33H69.9684V20.46H72.6684Z" fill="#FFFBEA"/>
<path d="M35.4723 38.0066L34.9752 38.0073C33.8083 38.3406 33.9752 40.0079 35.4723 39.5073C39.7405 38.08 39.7838 44.3557 39.7838 45.3557C39.7838 46.3557 37.2838 46.3557 37.7838 45.3557C37.7838 45.3557 39.2838 40.3557 35.2838 40.8557C32.0838 41.2557 32.4722 39.1732 32.4724 38.0066H31.4719C31.8054 37.5066 32.8583 36.1118 32.4724 36.0066C26.9745 34.5068 20.736 18.4863 33.4724 18.0066C43.2363 17.6388 40.7838 32.856 34.4724 36.0066L35.4723 38.0066Z" fill="#134545" stroke="#FFFBEA"/>
<path d="M29.2832 26.3559C29.4499 24.5226 30.4832 21.0559 33.2832 21.8559" stroke="#F5F5F5" stroke-width="2" stroke-linecap="round"/>
</svg>
